<svg width="163" height="29" viewBox="0 0 163 29" fill="none" xmlns="http://www.w3.org/2000/svg">
<path fill-rule="evenodd" clip-rule="evenodd" d="M6.65153 4.9893C6.65153 3.72453 7.15396 2.51155 8.04829 1.61722C8.94262 0.72289 10.1556 0.220459 11.4204 0.220459C12.6852 0.220459 13.8981 0.72289 14.7925 1.61722C15.6868 2.51155 16.1892 3.72453 16.1892 4.9893C16.1892 6.25408 15.6868 7.46706 14.7925 8.36139C13.8981 9.25572 12.6852 9.75815 11.4204 9.75815C10.1556 9.75815 8.94262 9.25572 8.04829 8.36139C7.15396 7.46706 6.65153 6.25408 6.65153 4.9893ZM2.03924 12.8007C3.01 11.8792 4.29745 11.3654 5.63596 11.3654C6.97447 11.3654 8.26193 11.8792 9.23268 12.8007L9.25328 12.8213L11.4204 14.9884L13.5895 12.8213L13.6101 12.8007C14.5807 11.8804 15.8673 11.3674 17.2048 11.3674C18.5423 11.3674 19.8289 11.8804 20.7994 12.8007C21.2815 13.2579 21.6656 13.8084 21.9282 14.4187C22.1908 15.029 22.3266 15.6864 22.3271 16.3508C22.3277 17.0152 22.1931 17.6728 21.9316 18.2836C21.67 18.8943 21.2869 19.4455 20.8056 19.9035L12.1372 28.3288C11.945 28.5157 11.6875 28.6202 11.4193 28.6202C11.1512 28.6202 10.8937 28.5157 10.7014 28.3288L2.03512 19.9035C1.55403 19.4457 1.17106 18.8947 0.909513 18.2842C0.647963 17.6737 0.513287 17.0164 0.513673 16.3523C0.514058 15.6881 0.649496 15.031 0.911755 14.4208C1.17401 13.8106 1.55762 13.2581 2.03924 12.8007Z" fill="white"/>
<path d="M35.0606 22.33C33.5206 22.33 32.1492 22.0293 30.9466 21.428C29.7586 20.812 28.8272 19.9247 28.1526 18.766C27.4926 17.5927 27.1626 16.17 27.1626 14.498C27.1626 12.8553 27.4852 11.4547 28.1306 10.296C28.7906 9.12267 29.6999 8.228 30.8586 7.612C32.0172 6.98133 33.3372 6.666 34.8186 6.666C36.1532 6.666 37.2899 6.90067 38.2286 7.37C39.1819 7.82467 39.9079 8.46267 40.4066 9.284C40.9199 10.1053 41.1839 11.0513 41.1986 12.122H40.5826C40.4946 11.462 40.2526 10.824 39.8566 10.208C39.4752 9.592 38.9179 9.086 38.1846 8.69C37.4659 8.294 36.5492 8.096 35.4346 8.096C34.3052 8.096 33.3006 8.35267 32.4206 8.866C31.5552 9.36467 30.8806 10.0833 30.3966 11.022C29.9126 11.946 29.6706 13.046 29.6706 14.322C29.6706 15.6127 29.9199 16.72 30.4186 17.644C30.9319 18.568 31.6286 19.2793 32.5086 19.778C33.4032 20.2767 34.4079 20.526 35.5226 20.526C36.6226 20.526 37.5466 20.3353 38.2946 19.954C39.0426 19.5727 39.6146 19.0667 40.0106 18.436C40.4212 17.7907 40.6559 17.0867 40.7146 16.324H42.1886C42.1446 17.4093 41.8586 18.414 41.3306 19.338C40.8026 20.2473 40.0252 20.9733 38.9986 21.516C37.9719 22.0587 36.6592 22.33 35.0606 22.33ZM41.1986 12.122L40.6046 10.78V6.996H42.0346V12.122H41.1986ZM47.0494 14.498C46.6534 14.498 46.294 14.388 45.9714 14.168C45.6634 13.9333 45.5094 13.5667 45.5094 13.068C45.5094 12.496 45.7367 12.0193 46.1914 11.638C46.6607 11.2567 47.2694 10.9707 48.0174 10.78C48.7654 10.5747 49.55 10.472 50.3714 10.472C51.7207 10.472 52.7694 10.7433 53.5174 11.286C54.2654 11.8287 54.632 12.65 54.6174 13.75L52.4834 13.42C52.4834 12.8333 52.2634 12.386 51.8234 12.078C51.398 11.77 50.76 11.616 49.9094 11.616C49.4107 11.616 48.9267 11.6747 48.4574 11.792C47.988 11.9093 47.5994 12.1 47.2914 12.364C46.998 12.6133 46.8367 12.9507 46.8074 13.376L46.7854 12.342C47.2547 12.3567 47.6287 12.452 47.9074 12.628C48.186 12.804 48.318 13.0753 48.3034 13.442C48.2887 13.7647 48.1714 14.0213 47.9514 14.212C47.7314 14.4027 47.4307 14.498 47.0494 14.498ZM55.6074 22.22C54.6687 22.22 53.95 21.9633 53.4514 21.45C52.9674 20.922 52.7254 20.1887 52.7254 19.25V18.524H52.4834V15.29H52.3514L52.4834 14.3V13.42L54.6174 13.75V19.426C54.6174 19.8073 54.7127 20.13 54.9034 20.394C55.1087 20.6433 55.402 20.768 55.7834 20.768C56.1647 20.768 56.4507 20.6433 56.6414 20.394C56.8467 20.13 56.9494 19.8073 56.9494 19.426V16.148H58.4234V19.272C58.4234 20.196 58.1814 20.922 57.6974 21.45C57.228 21.9633 56.5314 22.22 55.6074 22.22ZM48.5014 22.22C47.3867 22.22 46.47 21.956 45.7514 21.428C45.0474 20.8853 44.6954 20.1373 44.6954 19.184C44.6954 18.4947 44.842 17.9373 45.1354 17.512C45.4434 17.0867 45.8614 16.742 46.3894 16.478C46.9174 16.214 47.526 16.016 48.2154 15.884L50.0854 15.488C50.54 15.4 50.9434 15.2753 51.2954 15.114C51.662 14.9527 51.948 14.74 52.1534 14.476C52.3734 14.1973 52.4834 13.8453 52.4834 13.42L52.5494 15.29H52.4834C52.3367 15.6127 52.0874 15.8767 51.7354 16.082C51.3834 16.2873 50.936 16.4487 50.3934 16.566L49.4254 16.764C48.9707 16.8667 48.56 16.9987 48.1934 17.16C47.8414 17.3067 47.5554 17.5047 47.3354 17.754C47.1154 18.0033 47.0054 18.3407 47.0054 18.766C47.0054 19.3527 47.218 19.8 47.6434 20.108C48.0687 20.416 48.6334 20.57 49.3374 20.57C49.8947 20.57 50.408 20.4527 50.8774 20.218C51.3614 19.9833 51.75 19.602 52.0434 19.074C52.3367 18.5313 52.4834 17.82 52.4834 16.94L53.1214 17.006C53.1214 18.2527 52.916 19.2647 52.5054 20.042C52.0947 20.8047 51.5374 21.362 50.8334 21.714C50.144 22.0513 49.3667 22.22 48.5014 22.22ZM59.8126 22V20.834H61.7486V11.836H59.9886V10.692H63.7506V14.476L64.0146 14.432V20.834H66.6326V22H59.8126ZM63.2446 15.114C63.2593 14.014 63.45 13.1193 63.8166 12.43C64.198 11.726 64.704 11.2127 65.3346 10.89C65.9653 10.5527 66.684 10.384 67.4906 10.384C68.356 10.3693 69.0526 10.5747 69.5806 11C70.1086 11.4107 70.3726 11.99 70.3726 12.738C70.3726 13.2073 70.2333 13.5887 69.9546 13.882C69.6906 14.1753 69.3386 14.322 68.8986 14.322C68.5173 14.322 68.2093 14.212 67.9746 13.992C67.7546 13.772 67.6446 13.5007 67.6446 13.178C67.6446 12.782 67.784 12.4813 68.0626 12.276C68.3413 12.056 68.752 11.9607 69.2946 11.99L69.1186 12.782C69.0893 12.3567 68.8986 12.0267 68.5466 11.792C68.2093 11.5573 67.7546 11.4473 67.1826 11.462C66.6106 11.462 66.0826 11.6013 65.5986 11.88C65.1146 12.144 64.726 12.5473 64.4326 13.09C64.154 13.6327 64.0146 14.3073 64.0146 15.114H63.2446ZM77.8263 22.264C76.6823 22.264 75.685 22.0367 74.8343 21.582C73.9837 21.1273 73.3237 20.46 72.8543 19.58C72.385 18.6853 72.1503 17.6 72.1503 16.324C72.1503 15.0627 72.385 13.992 72.8543 13.112C73.3237 12.232 73.9763 11.5647 74.8123 11.11C75.663 10.6407 76.6457 10.406 77.7603 10.406L77.8263 11.682C77.1077 11.682 76.4843 11.8507 75.9563 12.188C75.443 12.5253 75.047 13.0313 74.7683 13.706C74.4897 14.366 74.3503 15.1947 74.3503 16.192C74.3503 17.5267 74.6877 18.59 75.3623 19.382C76.0517 20.1593 76.983 20.548 78.1563 20.548C78.875 20.548 79.4617 20.4307 79.9163 20.196C80.3857 19.9613 80.745 19.668 80.9943 19.316C81.2583 18.964 81.4417 18.6193 81.5443 18.282H83.0183C82.9743 18.7367 82.835 19.1987 82.6003 19.668C82.3657 20.1373 82.0357 20.57 81.6103 20.966C81.1997 21.362 80.679 21.6773 80.0483 21.912C79.4323 22.1467 78.6917 22.264 77.8263 22.264ZM73.2063 16.28V15.048H80.9723L83.1943 15.642V16.28H73.2063ZM80.9723 15.048C80.9577 14.432 80.833 13.8673 80.5983 13.354C80.3637 12.8407 80.0117 12.4373 79.5423 12.144C79.0877 11.836 78.5157 11.682 77.8263 11.682L77.7603 10.406C78.9483 10.406 79.9457 10.626 80.7523 11.066C81.559 11.506 82.1677 12.122 82.5783 12.914C82.989 13.706 83.1943 14.6153 83.1943 15.642L80.9723 15.048ZM85.1381 22V20.834H87.2281V8.162H85.1821V6.996H89.5601V22H85.1381ZM89.5601 22V20.636H94.0701C95.0674 20.636 95.8594 20.4013 96.4461 19.932C97.0327 19.448 97.3261 18.744 97.3261 17.82C97.3261 16.9107 97.0327 16.2213 96.4461 15.752C95.8594 15.2827 95.0674 15.048 94.0701 15.048H89.5601V14.146H94.8181C96.3287 14.146 97.5167 14.4613 98.3821 15.092C99.2621 15.7227 99.7021 16.698 99.7021 18.018C99.7021 19.3527 99.2547 20.35 98.3601 21.01C97.4801 21.67 96.2994 22 94.8181 22H89.5601ZM89.5601 14.476V13.684H93.5201C94.4881 13.684 95.2507 13.4567 95.8081 13.002C96.3654 12.5473 96.6441 11.88 96.6441 11C96.6441 10.1347 96.3654 9.47467 95.8081 9.02C95.2507 8.56533 94.4881 8.338 93.5201 8.338H89.5601V6.996H94.2241C95.6761 6.996 96.8347 7.31133 97.7001 7.942C98.5654 8.57267 98.9981 9.526 98.9981 10.802C98.9981 12.034 98.5727 12.958 97.7221 13.574C96.8714 14.1753 95.7054 14.476 94.2241 14.476H89.5601ZM101.729 22V20.834H103.665V11.836H101.905V10.692H105.667V14.476L105.931 14.432V20.834H108.549V22H101.729ZM105.161 15.114C105.175 14.014 105.366 13.1193 105.733 12.43C106.114 11.726 106.62 11.2127 107.251 10.89C107.881 10.5527 108.6 10.384 109.407 10.384C110.272 10.3693 110.969 10.5747 111.497 11C112.025 11.4107 112.289 11.99 112.289 12.738C112.289 13.2073 112.149 13.5887 111.871 13.882C111.607 14.1753 111.255 14.322 110.815 14.322C110.433 14.322 110.125 14.212 109.891 13.992C109.671 13.772 109.561 13.5007 109.561 13.178C109.561 12.782 109.7 12.4813 109.979 12.276C110.257 12.056 110.668 11.9607 111.211 11.99L111.035 12.782C111.005 12.3567 110.815 12.0267 110.463 11.792C110.125 11.5573 109.671 11.4473 109.099 11.462C108.527 11.462 107.999 11.6013 107.515 11.88C107.031 12.144 106.642 12.5473 106.349 13.09C106.07 13.6327 105.931 14.3073 105.931 15.114H105.161ZM113.975 22V20.834H115.911V11.836H114.151V10.692H118.177V20.834H119.893V22H113.975ZM116.923 9.152C116.468 9.152 116.094 9.02733 115.801 8.778C115.522 8.514 115.383 8.162 115.383 7.722C115.383 7.29667 115.522 6.96667 115.801 6.732C116.094 6.48267 116.468 6.358 116.923 6.358C117.377 6.358 117.744 6.48267 118.023 6.732C118.301 6.96667 118.441 7.304 118.441 7.744C118.441 8.16933 118.301 8.514 118.023 8.778C117.744 9.02733 117.377 9.152 116.923 9.152ZM127.039 22.242C126.027 22.242 125.125 22.0147 124.333 21.56C123.541 21.0907 122.918 20.416 122.463 19.536C122.023 18.6413 121.803 17.578 121.803 16.346C121.803 15.0847 122.023 14.0213 122.463 13.156C122.918 12.276 123.541 11.6087 124.333 11.154C125.125 10.6847 126.027 10.45 127.039 10.45C128.139 10.45 129.041 10.6847 129.745 11.154C130.464 11.6233 130.992 12.298 131.329 13.178C131.681 14.0433 131.857 15.0847 131.857 16.302L131.989 16.346C131.989 17.5487 131.806 18.5973 131.439 19.492C131.073 20.372 130.523 21.054 129.789 21.538C129.056 22.0073 128.139 22.242 127.039 22.242ZM127.787 20.746C128.506 20.746 129.137 20.5773 129.679 20.24C130.222 19.888 130.647 19.3893 130.955 18.744C131.263 18.084 131.417 17.2773 131.417 16.324C131.417 15.3853 131.263 14.5933 130.955 13.948C130.647 13.288 130.222 12.7893 129.679 12.452C129.137 12.1 128.506 11.924 127.787 11.924C127.069 11.924 126.438 12.1 125.895 12.452C125.367 12.7893 124.949 13.288 124.641 13.948C124.348 14.5933 124.201 15.3853 124.201 16.324C124.201 17.2773 124.348 18.084 124.641 18.744C124.949 19.3893 125.367 19.888 125.895 20.24C126.438 20.5773 127.069 20.746 127.787 20.746ZM131.483 22V18.986L131.725 16.324L131.285 14.058V7.37H129.547V6.204H133.551V20.834H135.289V22H131.483ZM141.365 26.092C140.221 26.092 139.348 25.8867 138.747 25.476C138.146 25.08 137.845 24.4933 137.845 23.716C137.845 23.2467 137.977 22.8507 138.241 22.528C138.52 22.22 138.864 21.9853 139.275 21.824C139.7 21.648 140.126 21.5527 140.551 21.538L140.617 21.736C140.47 21.824 140.309 21.9413 140.133 22.088C139.972 22.2347 139.832 22.4033 139.715 22.594C139.598 22.7847 139.539 23.012 139.539 23.276C139.539 23.7747 139.708 24.1707 140.045 24.464C140.397 24.772 140.947 24.926 141.695 24.926H144.731C145.259 24.926 145.684 24.838 146.007 24.662C146.344 24.5007 146.586 24.288 146.733 24.024C146.88 23.76 146.953 23.474 146.953 23.166C146.953 22.7113 146.828 22.3667 146.579 22.132C146.344 21.912 145.963 21.802 145.435 21.802H140.287C139.334 21.802 138.564 21.5747 137.977 21.12C137.39 20.6507 137.097 20.0273 137.097 19.25C137.097 18.678 137.229 18.2013 137.493 17.82C137.772 17.4387 138.146 17.1527 138.615 16.962C139.084 16.7567 139.605 16.654 140.177 16.654L140.221 17.248C139.796 17.2773 139.444 17.4093 139.165 17.644C138.886 17.8787 138.747 18.2087 138.747 18.634C138.747 19.03 138.894 19.3453 139.187 19.58C139.48 19.8147 139.869 19.932 140.353 19.932H145.765C146.806 19.932 147.598 20.1667 148.141 20.636C148.684 21.0907 148.955 21.7213 148.955 22.528C148.955 23.2027 148.794 23.804 148.471 24.332C148.163 24.8747 147.679 25.3 147.019 25.608C146.374 25.9307 145.545 26.092 144.533 26.092H141.365ZM142.905 17.996C141.952 17.996 141.116 17.8493 140.397 17.556C139.678 17.248 139.121 16.8153 138.725 16.258C138.329 15.7007 138.131 15.0407 138.131 14.278C138.131 13.134 138.571 12.232 139.451 11.572C140.331 10.8973 141.504 10.56 142.971 10.56L145.677 11.836C146.19 11.9973 146.63 12.3053 146.997 12.76C147.378 13.2 147.569 13.7793 147.569 14.498C147.569 15.554 147.151 16.4047 146.315 17.05C145.494 17.6807 144.357 17.996 142.905 17.996ZM142.905 16.83C143.682 16.83 144.291 16.6027 144.731 16.148C145.186 15.6933 145.413 15.07 145.413 14.278C145.413 13.5007 145.186 12.8773 144.731 12.408C144.291 11.9387 143.682 11.704 142.905 11.704C142.157 11.704 141.556 11.9387 141.101 12.408C140.646 12.8773 140.419 13.5007 140.419 14.278C140.419 15.07 140.639 15.6933 141.079 16.148C141.534 16.6027 142.142 16.83 142.905 16.83ZM145.677 11.836L142.971 10.56H148.867V11.836H145.677ZM156.352 22.264C155.208 22.264 154.21 22.0367 153.36 21.582C152.509 21.1273 151.849 20.46 151.38 19.58C150.91 18.6853 150.676 17.6 150.676 16.324C150.676 15.0627 150.91 13.992 151.38 13.112C151.849 12.232 152.502 11.5647 153.338 11.11C154.188 10.6407 155.171 10.406 156.286 10.406L156.352 11.682C155.633 11.682 155.01 11.8507 154.482 12.188C153.968 12.5253 153.572 13.0313 153.294 13.706C153.015 14.366 152.876 15.1947 152.876 16.192C152.876 17.5267 153.213 18.59 153.888 19.382C154.577 20.1593 155.508 20.548 156.682 20.548C157.4 20.548 157.987 20.4307 158.442 20.196C158.911 19.9613 159.27 19.668 159.52 19.316C159.784 18.964 159.967 18.6193 160.07 18.282H161.544C161.5 18.7367 161.36 19.1987 161.126 19.668C160.891 20.1373 160.561 20.57 160.136 20.966C159.725 21.362 159.204 21.6773 158.574 21.912C157.958 22.1467 157.217 22.264 156.352 22.264ZM151.732 16.28V15.048H159.498L161.72 15.642V16.28H151.732ZM159.498 15.048C159.483 14.432 159.358 13.8673 159.124 13.354C158.889 12.8407 158.537 12.4373 158.068 12.144C157.613 11.836 157.041 11.682 156.352 11.682L156.286 10.406C157.474 10.406 158.471 10.626 159.278 11.066C160.084 11.506 160.693 12.122 161.104 12.914C161.514 13.706 161.72 14.6153 161.72 15.642L159.498 15.048Z" fill="white"/>
</svg>
