<svg width="23" height="29" viewBox="0 0 23 29" fill="none" xmlns="http://www.w3.org/2000/svg">
<path fill-rule="evenodd" clip-rule="evenodd" d="M6.65153 4.9893C6.65153 3.72453 7.15396 2.51155 8.04829 1.61722C8.94262 0.72289 10.1556 0.220459 11.4204 0.220459C12.6852 0.220459 13.8981 0.72289 14.7925 1.61722C15.6868 2.51155 16.1892 3.72453 16.1892 4.9893C16.1892 6.25408 15.6868 7.46706 14.7925 8.36139C13.8981 9.25572 12.6852 9.75815 11.4204 9.75815C10.1556 9.75815 8.94262 9.25572 8.04829 8.36139C7.15396 7.46706 6.65153 6.25408 6.65153 4.9893ZM2.03924 12.8007C3.01 11.8792 4.29745 11.3654 5.63596 11.3654C6.97447 11.3654 8.26193 11.8792 9.23268 12.8007L9.25328 12.8213L11.4204 14.9884L13.5895 12.8213L13.6101 12.8007C14.5807 11.8804 15.8673 11.3674 17.2048 11.3674C18.5423 11.3674 19.8289 11.8804 20.7994 12.8007C21.2815 13.2579 21.6656 13.8084 21.9282 14.4187C22.1908 15.029 22.3266 15.6864 22.3271 16.3508C22.3277 17.0152 22.1931 17.6728 21.9316 18.2836C21.67 18.8943 21.2869 19.4455 20.8056 19.9035L12.1372 28.3288C11.945 28.5157 11.6875 28.6202 11.4193 28.6202C11.1512 28.6202 10.8937 28.5157 10.7014 28.3288L2.03512 19.9035C1.55403 19.4457 1.17106 18.8947 0.909513 18.2842C0.647963 17.6737 0.513287 17.0164 0.513673 16.3523C0.514058 15.6881 0.649496 15.031 0.911755 14.4208C1.17401 13.8106 1.55762 13.2581 2.03924 12.8007Z" fill="#3B82F6"/>
</svg>
